<svg xmlns="http://www.w3.org/2000/svg" aria-hidden="true" style="position:absolute;width:0;height:0;overflow:hidden">
  <defs>
    <symbol id="icon-arrow" viewBox="0 0 32 32">
      <path fill="#ffb804" d="M4 24.267h24.546L16.273 8 4 24.267z" style="fill:var(--color1, #ffb804)"/>
    </symbol>
    <symbol id="icon-arrow-left" viewBox="0 0 32 32">
      <path fill="#ffb804" d="M20.834 8.037 9.64 14.5c-1.43.825-1.43 2.175 0 3l11.195 6.463c1.43.826 2.598.15 2.598-1.5V9.537c0-1.65-1.169-2.326-2.599-1.5z" style="fill:var(--color1, #ffb804)"/>
    </symbol>
    <symbol id="icon-arrow-right" viewBox="0 0 32 32">
      <path fill="#ffb804" d="M11.166 23.963 22.36 17.5c1.43-.825 1.43-2.175 0-3L11.165 8.037c-1.43-.826-2.598-.15-2.598 1.5v12.926c0 1.65 1.169 2.326 2.599 1.5z" style="fill:var(--color1, #ffb804)"/>
    </symbol>
    <symbol id="icon-check" viewBox="0 0 32 32">
      <path fill="#ffb804" d="m12.733 20.2 11.3-11.3c.267-.267.578-.4.933-.4s.667.133.933.4c.267.267.4.584.4.951s-.133.684-.4.949L13.666 23.067c-.267.267-.578.4-.933.4s-.667-.133-.933-.4l-5.733-5.733c-.267-.267-.395-.583-.384-.949s.15-.683.417-.951c.268-.268.584-.401.951-.4s.683.134.949.4l4.733 4.767z" style="fill:var(--color1, #ffb804)"/>
    </symbol>
    <symbol id="icon-close" viewBox="0 0 32 32">
      <path fill="#ffb804" d="m8.533 25.333-1.867-1.867 7.467-7.467-7.467-7.467 1.867-1.867L16 14.132l7.467-7.467 1.867 1.867-7.467 7.467 7.467 7.467-1.867 1.867L16 17.866l-7.467 7.467z" style="fill:var(--color1, #ffb804)"/>
    </symbol>
    <symbol id="icon-menu" viewBox="0 0 32 32">
      <path d="M4 24v-2h24v2H4zm0-7v-2h24v2H4zm0-7V8h24v2H4z"/>
    </symbol>
  </defs>
</svg>
